<svg width="32" height="33" viewBox="0 0 32 33" fill="none" xmlns="http://www.w3.org/2000/svg">
<path d="M16 30.7213C23.7319 30.7213 30 24.2917 30 16.3606C30 8.42947 23.7319 2 16 2C8.26801 2 2 8.42947 2 16.3606C2 24.2917 8.26801 30.7213 16 30.7213Z" stroke="#3A3A3C" stroke-width="2.7" stroke-linecap="round" stroke-linejoin="round"/>
<path d="M2.69995 17.0787L10.4 19.9509L8.99995 24.9771L10.4 29.2853" stroke="#3A3A3C" stroke-width="2.7" stroke-linecap="round" stroke-linejoin="round"/>
<path d="M23 28.5672L22.3 24.9771L18.8 23.541V18.5148L23 17.0787L29.3 17.7968" stroke="#3A3A3C" stroke-width="2.7" stroke-linecap="round" stroke-linejoin="round"/>
<path d="M25.8 7.02612L25.1 9.18022L20.2 9.89825V14.2064L23.7 12.7704H26.5L29.3 14.2064" stroke="#3A3A3C" stroke-width="2.7" stroke-linecap="round" stroke-linejoin="round"/>
<path d="M2.69995 14.2064L6.19995 11.3343L9.69995 10.6162L12.5 6.30804L11.1 3.43591" stroke="#3A3A3C" stroke-width="2.7" stroke-linecap="round" stroke-linejoin="round"/>
</svg>
